<?xml version="1.0" encoding="UTF-8" standalone="no"?>
<svg
   xmlns:dc="http://purl.org/dc/elements/1.1/"
   xmlns:cc="http://creativecommons.org/ns#"
   xmlns:rdf="http://www.w3.org/1999/02/22-rdf-syntax-ns#"
   xmlns:svg="http://www.w3.org/2000/svg"
   xmlns="http://www.w3.org/2000/svg"
   height="12.450319"
   width="20.000002"
   xml:space="preserve"
   viewBox="0 0 20.000002 12.450319"
   y="0px"
   x="0px"
   id="Capa_1"
   version="1.1"><metadata
   id="metadata5300"><rdf:RDF><cc:Work
       rdf:about=""><dc:format>image/svg+xml</dc:format><dc:type
         rdf:resource="http://purl.org/dc/dcmitype/StillImage" /><dc:title></dc:title></cc:Work></rdf:RDF></metadata><defs
   id="defs5298" />

<g
   transform="translate(163.71593,-115.38235)"
   id="g5265">
</g>
<g
   transform="translate(163.71593,-115.38235)"
   id="g5267">
</g>
<g
   transform="translate(163.71593,-115.38235)"
   id="g5269">
</g>
<g
   transform="translate(163.71593,-115.38235)"
   id="g5271">
</g>
<g
   transform="translate(163.71593,-115.38235)"
   id="g5273">
</g>
<g
   transform="translate(163.71593,-115.38235)"
   id="g5275">
</g>
<g
   transform="translate(163.71593,-115.38235)"
   id="g5277">
</g>
<g
   transform="translate(163.71593,-115.38235)"
   id="g5279">
</g>
<g
   transform="translate(163.71593,-115.38235)"
   id="g5281">
</g>
<g
   transform="translate(163.71593,-115.38235)"
   id="g5283">
</g>
<g
   transform="translate(163.71593,-115.38235)"
   id="g5285">
</g>
<g
   transform="translate(163.71593,-115.38235)"
   id="g5287">
</g>
<g
   transform="translate(163.71593,-115.38235)"
   id="g5289">
</g>
<g
   transform="translate(163.71593,-115.38235)"
   id="g5291">
</g>
<g
   transform="translate(163.71593,-115.38235)"
   id="g5293">
</g>
<g
   style="fill:#ffffff;fill-opacity:1"
   transform="matrix(0.05829397,0,0,0.05829397,0,-3.7748747)"
   id="g5918"><g
     style="fill:#ffffff;fill-opacity:1"
     id="g5857"><g
       style="fill:#ffffff;fill-opacity:1"
       id="g5855"><g
         style="fill:#ffffff;fill-opacity:1"
         id="g5853"><path
           style="fill:#ffffff;fill-opacity:1"
           d="m 341.521,167.415 c -0.267,-0.321 -0.563,-0.618 -0.885,-0.885 L 243.46,67.265 c -2.942,-3.174 -7.901,-3.362 -11.075,-0.42 -1.574,1.459 -2.481,3.499 -2.509,5.645 v 52.245 h -125.91 c -4.702,0 -9.927,1.045 -9.927,5.224 v 83.592 c 0.621,5.301 4.664,9.557 9.927,10.449 h 125.91 v 47.02 c 0.076,3.126 1.89,5.947 4.702,7.314 h 3.135 c 2.183,-0.086 4.246,-1.024 5.747,-2.612 l 97.176,-98.743 c 2.886,-2.397 3.282,-6.679 0.885,-9.564 z"
           id="path5845" /><path
           style="fill:#ffffff;fill-opacity:1"
           d="m 70.531,122.122 c -4.328,0 -7.837,3.509 -7.837,7.837 v 83.592 c 0,4.328 3.509,7.837 7.837,7.837 4.328,0 7.837,-3.509 7.837,-7.837 v -83.592 c -10e-4,-4.329 -3.509,-7.837 -7.837,-7.837 z"
           id="path5847" /><path
           style="fill:#ffffff;fill-opacity:1"
           d="m 39.184,122.122 c -4.328,0 -7.837,3.509 -7.837,7.837 v 83.592 c 0,4.328 3.509,7.837 7.837,7.837 4.328,0 7.837,-3.509 7.837,-7.837 v -83.592 c -10e-4,-4.329 -3.509,-7.837 -7.837,-7.837 z"
           id="path5849" /><path
           style="fill:#ffffff;fill-opacity:1"
           d="M 7.837,122.122 C 3.509,122.122 0,125.631 0,129.959 v 83.592 c 0,4.328 3.509,7.837 7.837,7.837 4.328,0 7.837,-3.509 7.837,-7.837 v -83.592 c -10e-4,-4.329 -3.509,-7.837 -7.837,-7.837 z"
           id="path5851" /></g></g></g><g
     style="fill:#ffffff;fill-opacity:1"
     id="g5859" /><g
     style="fill:#ffffff;fill-opacity:1"
     id="g5861" /><g
     style="fill:#ffffff;fill-opacity:1"
     id="g5863" /><g
     style="fill:#ffffff;fill-opacity:1"
     id="g5865" /><g
     style="fill:#ffffff;fill-opacity:1"
     id="g5867" /><g
     style="fill:#ffffff;fill-opacity:1"
     id="g5869" /><g
     style="fill:#ffffff;fill-opacity:1"
     id="g5871" /><g
     style="fill:#ffffff;fill-opacity:1"
     id="g5873" /><g
     style="fill:#ffffff;fill-opacity:1"
     id="g5875" /><g
     style="fill:#ffffff;fill-opacity:1"
     id="g5877" /><g
     style="fill:#ffffff;fill-opacity:1"
     id="g5879" /><g
     style="fill:#ffffff;fill-opacity:1"
     id="g5881" /><g
     style="fill:#ffffff;fill-opacity:1"
     id="g5883" /><g
     style="fill:#ffffff;fill-opacity:1"
     id="g5885" /><g
     style="fill:#ffffff;fill-opacity:1"
     id="g5887" /></g></svg>